<svg xmlns="http://www.w3.org/2000/svg" viewBox="0 0 120 120" role="img" aria-label="Janus">
  <!-- Open Janus mark: verdigris looks back, amber looks forward. -->
  <g fill="none" stroke-width="6.5" stroke-linecap="round" stroke-linejoin="round">
    <path stroke="#23998f" d="M60 20
      C51 19 44 21 39 27
      L25 21
      C24 31 28 38 35 41
      C30 49 29 58 31 67
      L22 82
      L32 83
      C31 90 34 97 41 101
      C47 104 53 105 55 112
      L55 118"/>
    <path stroke="#d88910" d="M60 20
      C69 19 76 21 81 27
      L95 21
      C96 31 92 38 85 41
      C90 49 91 58 89 67
      L98 82
      L88 83
      C89 90 86 97 79 101
      C73 104 67 105 65 112
      L65 118"/>
    <path stroke="#0f2744" stroke-width="7" d="M30 106H90"/>
  </g>
</svg>
