<svg xmlns="http://www.w3.org/2000/svg" viewBox="-3 -3 222 231" role="img" aria-labelledby="janus-mark-title">
  <title id="janus-mark-title">Janus</title>
  <defs>
    <linearGradient id="janus-faces" x1="0" y1="0" x2="1" y2="0">
      <stop offset="0" stop-color="#1d9085"/>
      <stop offset=".49" stop-color="#1d9085"/>
      <stop offset=".51" stop-color="#168e83"/>
      <stop offset=".53" stop-color="#d18819"/>
      <stop offset="1" stop-color="#d18819"/>
    </linearGradient>
  </defs>
  <!-- Faces-only trace of the canonical supplied mark; the rule and wordmark are intentionally excluded. -->
  <g transform="translate(-2.035357 225.644331) scale(.1 -.1)" fill="url(#janus-faces)" stroke="none">
    <path d="M930 2246c-124-27-257-90-325-156l-30-29-98 20c-122 25-274 23-290-2-8-13 1-50 35-150l45-133-54-113c-65-134-75-194-48-282l17-58-81-159c-44-87-81-165-81-174 1-25 25-60 56-81 19-12 46-19 82-19 58 0 59-2 40-74-10-39-10-48 5-63 10-12 14-27 10-41-4-16 3-30 26-51l32-30-12-60c-12-55-11-65 7-108 14-35 30-54 59-71 35-20 49-23 120-18 68 4 127 18 206 51 14 5 17-8 24-108 8-133-2-180-45-222-35-34-40-79-11-95 11-5 24-10 30-10 19 0 74 65 97 115 22 46 24 63 24 223v174l36 41c124 145 198 518 150 749-39 184-159 322-343 398-131 53-232 102-246 119-15 17-72 170-66 176 9 9 168-16 226-36l63-21 56 51c121 111 266 162 462 162 199 1 332-44 446-150 36-34 67-61 69-61 1 0 28 9 59 20 51 18 218 44 226 35 2-2-9-42-25-90l-28-86-92-44c-51-25-136-65-188-91-161-76-261-191-309-352-50-170-17-476 73-667 21-45 54-100 74-121l35-39-4-158c-6-182 4-227 62-295 42-50 69-60 95-36 27 24 24 41-15 85-48 53-58 97-50 229 6 96 9 110 23 105 116-45 229-65 285-51 38 9 93 62 106 102 9 28 9 50 0 97-12 60-11 61 14 80 18 13 26 28 26 48 0 16 7 40 15 53 13 19 14 32 6 67-16 68-16 69 34 69 78 0 135 44 135 103 0 15-34 95-76 178l-75 150 17 69c16 59 17 78 6 126-6 31-33 101-61 156l-49 100 46 138c60 179 62 175-103 167-66-3-146-13-177-22l-57-15-66 50c-139 105-247 140-455 146-90 2-156-1-200-10zm-405-600c273-110 369-273 344-586-5-61-16-140-24-175-25-110-73-220-116-269-51-58-158-112-255-128-65-10-75-10-99 6-27 18-28 19-21 100 5 64 3 85-9 102-14 20-13 23 10 38 44 29 28 70-32 82l-31 6 6 64c4 49 1 69-12 89-15 23-23 25-85 25-37 0-70 3-74 6-3 4 30 77 73 164 44 87 80 167 80 178 0 11-7 37-16 58-26 62-15 134 34 237l43 87 47-24c26-13 88-40 137-60zm1388-3c48-103 58-177 33-237-9-21-16-50-16-63 0-14 36-93 80-177 44-84 77-156 73-159-3-4-35-7-70-7-51 0-67-4-84-21-19-19-21-29-16-90l6-68-32-7c-18-3-38-11-44-16-21-17-15-46 12-64 23-15 24-17 8-41-14-22-15-34-6-90 20-112-6-135-129-113-133 23-247 99-297 198-30 58-59 157-76 256-17 101-20 289-4 355 29 127 130 252 249 308 55 27 259 119 268 122 2 1 22-38 45-86z"/>
  </g>
</svg>
